<svg
  width="16"
  height="16"
  viewBox="0 0 13 13"
  fill="none"
  xmlns="http://www.w3.org/2000/svg"
>
  <path
    d="M0 12C0 12.2766 0.223437 12.5 0.5 12.5H12C12.2766 12.5 12.5 12.2766 12.5 12V5.4375H0V12ZM12 1.125H9.375V0.125C9.375 0.05625 9.31875 0 9.25 0H8.375C8.30625 0 8.25 0.05625 8.25 0.125V1.125H4.25V0.125C4.25 0.05625 4.19375 0 4.125 0H3.25C3.18125 0 3.125 0.05625 3.125 0.125V1.125H0.5C0.223437 1.125 0 1.34844 0 1.625V4.375H12.5V1.625C12.5 1.34844 12.2766 1.125 12 1.125Z"
    fill="#303030"
  ></path>
</svg>
